<svg xmlns="http://www.w3.org/2000/svg"  viewBox="0 0 100 100" width="100px" height="100px"><circle cx="31" cy="48" r="4" fill="#f15b6c"/><path fill="#1f212b" d="M31,53c-2.757,0-5-2.243-5-5s2.243-5,5-5s5,2.243,5,5S33.757,53,31,53z M31,45c-1.654,0-3,1.346-3,3 s1.346,3,3,3s3-1.346,3-3S32.654,45,31,45z"/><circle cx="50" cy="30" r="4" fill="#f15b6c"/><path fill="#1f212b" d="M50,35c-2.757,0-5-2.243-5-5s2.243-5,5-5s5,2.243,5,5S52.757,35,50,35z M50,27c-1.654,0-3,1.346-3,3 s1.346,3,3,3s3-1.346,3-3S51.654,27,50,27z"/><circle cx="50" cy="67" r="4" fill="#f15b6c"/><path fill="#1f212b" d="M50,72c-2.757,0-5-2.243-5-5s2.243-5,5-5s5,2.243,5,5S52.757,72,50,72z M50,64c-1.654,0-3,1.346-3,3 s1.346,3,3,3s3-1.346,3-3S51.654,64,50,64z"/><circle cx="37" cy="60" r="4" fill="#f15b6c"/><path fill="#1f212b" d="M37,65c-2.757,0-5-2.243-5-5s2.243-5,5-5s5,2.243,5,5S39.757,65,37,65z M37,57c-1.654,0-3,1.346-3,3 s1.346,3,3,3s3-1.346,3-3S38.654,57,37,57z"/><circle cx="63" cy="60" r="4" fill="#f15b6c"/><path fill="#1f212b" d="M63,65c-2.757,0-5-2.243-5-5s2.243-5,5-5s5,2.243,5,5S65.757,65,63,65z M63,57c-1.654,0-3,1.346-3,3 s1.346,3,3,3s3-1.346,3-3S64.654,57,63,57z"/><circle cx="37" cy="35" r="4" fill="#f15b6c"/><path fill="#1f212b" d="M37,40c-2.757,0-5-2.243-5-5s2.243-5,5-5s5,2.243,5,5S39.757,40,37,40z M37,32c-1.654,0-3,1.346-3,3 s1.346,3,3,3s3-1.346,3-3S38.654,32,37,32z"/><circle cx="63" cy="35" r="4" fill="#f15b6c"/><path fill="#1f212b" d="M63,40c-2.757,0-5-2.243-5-5s2.243-5,5-5s5,2.243,5,5S65.757,40,63,40z M63,32c-1.654,0-3,1.346-3,3 s1.346,3,3,3s3-1.346,3-3S64.654,32,63,32z"/><circle cx="68" cy="48" r="4" fill="#f15b6c"/><path fill="#1f212b" d="M68,53c-2.757,0-5-2.243-5-5s2.243-5,5-5s5,2.243,5,5S70.757,53,68,53z M68,45c-1.654,0-3,1.346-3,3 s1.346,3,3,3s3-1.346,3-3S69.654,45,68,45z"/><path fill="#f15b6c" d="M15.128,56.976C15.252,56.984,15.375,57,15.5,57c4.142,0,7.5-4.253,7.5-9.5S19.642,38,15.5,38 c-0.028,0-0.055,0.005-0.083,0.005C14.501,41.18,14,44.531,14,48C14,51.099,14.392,54.107,15.128,56.976z"/><path fill="#1f212b" d="M15.5,57.975c-0.111,0-0.22-0.008-0.33-0.018l-0.103-0.008c-0.421-0.026-0.778-0.321-0.883-0.73 c-0.769-2.998-1.159-6.1-1.159-9.219c0-3.464,0.489-6.918,1.455-10.266c0.12-0.417,0.502-0.704,0.937-0.704 c0.002,0,0.005,0,0.007,0c4.753,0,8.551,4.697,8.551,10.47C23.975,53.275,20.173,57.975,15.5,57.975z M16.148,39.017 c-0.779,2.938-1.173,5.957-1.173,8.983c0,2.705,0.309,5.396,0.92,8.01c3.415-0.268,6.13-3.982,6.13-8.51 C22.025,43.085,19.443,39.442,16.148,39.017z"/><g><path fill="#f15b6c" d="M40.116,13.385C40.047,13.75,40,14.12,40,14.5c0,4.142,4.253,7.5,9.5,7.5s9.5-3.358,9.5-7.5 c0-0.481-0.063-0.95-0.172-1.406C56.002,12.382,53.046,12,50,12C46.571,12,43.258,12.49,40.116,13.385z"/><path fill="#1f212b" d="M49.5,22.975c-5.776,0-10.475-3.802-10.475-8.475c0-0.402,0.042-0.814,0.133-1.296 c0.068-0.362,0.336-0.655,0.691-0.757c6.266-1.785,12.945-1.88,19.217-0.299c0.352,0.089,0.625,0.365,0.709,0.718 c0.132,0.552,0.199,1.102,0.199,1.634C59.975,19.173,55.276,22.975,49.5,22.975z M40.99,14.155 c-0.01,0.119-0.015,0.233-0.015,0.345c0,3.598,3.824,6.525,8.525,6.525s8.525-2.928,8.525-6.525c0-0.201-0.013-0.402-0.04-0.607 C52.425,12.596,46.548,12.678,40.99,14.155z"/></g><g><path fill="#f15b6c" d="M79.763,30.643c0.418-0.367,0.77-0.785,1.066-1.238c-3.298-5.456-8.003-9.967-13.613-13.027 c-3.091,2.737-2.806,8.131,0.645,12.067C71.32,32.39,76.648,33.374,79.763,30.643z"/><path fill="#1f212b" d="M75.463,33.165c-0.553,0-1.121-0.053-1.699-0.159c-2.463-0.455-4.819-1.847-6.636-3.919 c-3.792-4.325-4.043-10.354-0.558-13.438c0.307-0.273,0.752-0.324,1.113-0.126c5.753,3.138,10.587,7.765,13.981,13.379 c0.194,0.32,0.187,0.724-0.019,1.037c-0.356,0.545-0.773,1.028-1.24,1.437l0,0C79.064,32.552,77.349,33.165,75.463,33.165z M67.386,17.59c-2.155,2.499-1.683,6.915,1.207,10.212c1.529,1.744,3.491,2.911,5.524,3.287c1.948,0.36,3.725-0.059,5.002-1.179 c0-0.001,0-0.001,0-0.001c0.189-0.165,0.368-0.35,0.535-0.551C76.591,24.493,72.37,20.445,67.386,17.59z"/></g><g><path fill="#f15b6c" d="M19.17,29.405c0.296,0.453,0.648,0.871,1.066,1.238c3.115,2.731,8.443,1.747,11.902-2.198 c3.451-3.936,3.736-9.33,0.645-12.067C27.173,19.438,22.469,23.948,19.17,29.405z"/><path fill="#1f212b" d="M24.537,33.165c-1.886,0-3.601-0.613-4.943-1.79c-0.466-0.408-0.883-0.892-1.24-1.437 c-0.205-0.313-0.212-0.717-0.019-1.037c3.393-5.614,8.228-10.241,13.981-13.379c0.361-0.197,0.806-0.147,1.113,0.126 c3.485,3.085,3.235,9.113-0.558,13.438c-1.817,2.072-4.174,3.464-6.636,3.919C25.658,33.112,25.09,33.165,24.537,33.165z M20.344,29.358c0.167,0.201,0.345,0.386,0.535,0.551c1.278,1.12,3.054,1.538,5.003,1.18c2.033-0.376,3.995-1.543,5.524-3.287 c2.891-3.297,3.363-7.713,1.207-10.212C27.63,20.445,23.409,24.493,20.344,29.358z"/></g><g><path fill="#f15b6c" d="M81.122,66.087c-0.343-0.648-0.793-1.234-1.359-1.73c-3.115-2.731-8.443-1.747-11.902,2.198 s-3.738,9.357-0.624,12.088c0.233,0.204,0.481,0.381,0.737,0.544C73.417,76.043,77.958,71.518,81.122,66.087z"/><path fill="#1f212b" d="M67.974,80.161c-0.182,0-0.364-0.051-0.524-0.152c-0.33-0.211-0.61-0.418-0.856-0.633 c-1.735-1.521-2.618-3.784-2.484-6.372c0.129-2.501,1.201-5.02,3.017-7.091c3.807-4.342,9.764-5.371,13.278-2.29 c0.637,0.56,1.168,1.234,1.577,2.007c0.158,0.298,0.151,0.656-0.019,0.947c-3.248,5.575-7.917,10.228-13.503,13.453 C68.311,80.118,68.142,80.161,67.974,80.161z M75.444,63.782c-2.323,0-4.906,1.198-6.85,3.416c-1.529,1.743-2.43,3.841-2.537,5.906 c-0.102,1.979,0.545,3.686,1.822,4.806c0.045,0.039,0.092,0.078,0.141,0.117c4.893-2.942,9.013-7.053,11.968-11.941 c-0.248-0.374-0.539-0.708-0.869-0.997C78.112,64.205,76.824,63.782,75.444,63.782z"/></g><g><path fill="#f15b6c" d="M20.237,64.357c-0.565,0.496-1.016,1.082-1.359,1.73c3.164,5.431,7.705,9.956,13.148,13.1 c0.256-0.163,0.504-0.34,0.737-0.544c3.114-2.731,2.835-8.143-0.624-12.088S23.352,61.626,20.237,64.357z"/><path fill="#1f212b" d="M32.026,80.161c-0.168,0-0.336-0.043-0.488-0.131c-5.586-3.226-10.255-7.878-13.503-13.453 c-0.17-0.291-0.177-0.649-0.019-0.947c0.41-0.772,0.94-1.447,1.577-2.006c0,0,0,0,0-0.001c3.514-3.079,9.47-2.054,13.278,2.29 c1.817,2.071,2.888,4.59,3.017,7.091c0.134,2.588-0.749,4.851-2.484,6.371c-0.246,0.216-0.526,0.423-0.856,0.634 C32.39,80.11,32.208,80.161,32.026,80.161z M20.011,66.086c2.955,4.889,7.075,8.999,11.968,11.941 c0.049-0.039,0.096-0.078,0.142-0.118c1.277-1.119,1.924-2.826,1.822-4.805c-0.107-2.065-1.008-4.163-2.537-5.906 c-3.099-3.533-7.821-4.482-10.527-2.108C20.55,65.378,20.259,65.712,20.011,66.086z"/></g><g><path fill="#f15b6c" d="M49.5,75c-5.247,0-9.5,3.358-9.5,7.5c0,0.028,0.005,0.055,0.005,0.083C43.18,83.499,46.53,84,50,84 c3.099,0,6.107-0.392,8.976-1.129C58.984,82.747,59,82.625,59,82.5C59,78.358,54.747,75,49.5,75z"/><path fill="#1f212b" d="M50,84.975c-3.465,0-6.919-0.489-10.265-1.455c-0.411-0.119-0.697-0.491-0.704-0.919 c0-0.006-0.005-0.095-0.005-0.101c0-4.673,4.699-8.475,10.475-8.475s10.475,3.802,10.475,8.475c0,0.11-0.008,0.22-0.018,0.328 l-0.008,0.104c-0.026,0.421-0.321,0.777-0.73,0.883C56.22,84.585,53.119,84.975,50,84.975z M41.016,81.852 c5.564,1.476,11.455,1.549,16.993,0.253c-0.268-3.414-3.982-6.13-8.51-6.13C45.085,75.975,41.443,78.557,41.016,81.852z"/></g><g><path fill="#f15b6c" d="M77,47.5c0,5.247,3.358,9.5,7.5,9.5c0.125,0,0.248-0.016,0.372-0.024C85.608,54.107,86,51.099,86,48 c0-3.469-0.501-6.82-1.417-9.995C84.555,38.005,84.528,38,84.5,38C80.358,38,77,42.253,77,47.5z"/><path fill="#1f212b" d="M84.5,57.975c-4.673,0-8.475-4.699-8.475-10.475s3.802-10.475,8.475-10.475 c0.029,0,0.099,0.004,0.128,0.006c0.401,0.036,0.781,0.316,0.892,0.703c0.965,3.348,1.455,6.802,1.455,10.266 c0,3.119-0.39,6.221-1.159,9.219c-0.105,0.409-0.461,0.704-0.883,0.73l-0.103,0.008C84.72,57.967,84.611,57.975,84.5,57.975z M83.851,39.011c-3.275,0.405-5.876,4.058-5.876,8.489c0,4.527,2.716,8.242,6.13,8.51c0.611-2.613,0.92-5.305,0.92-8.01 C85.025,44.972,84.63,41.951,83.851,39.011z"/></g><g><path fill="#1f212b" d="M73.667,80.173c-6.894,5.08-15.078,7.765-23.667,7.765c-0.311,0-0.563,0.252-0.563,0.563 s0.252,0.563,0.563,0.563c8.831,0,17.246-2.761,24.334-7.983c0.25-0.185,0.304-0.537,0.119-0.787 C74.269,80.043,73.917,79.987,73.667,80.173z"/><path fill="#1f212b" d="M84.315,69.528c-0.261-0.17-0.609-0.094-0.778,0.166c-1.933,2.981-4.258,5.698-6.912,8.074 c-0.231,0.207-0.251,0.563-0.044,0.794c0.111,0.124,0.265,0.188,0.419,0.188c0.133,0,0.268-0.047,0.375-0.144 c2.728-2.442,5.119-5.234,7.106-8.301C84.65,70.045,84.576,69.697,84.315,69.528z"/></g></svg>